<?xml version="1.0" encoding="utf-8"?>
<!-- Generator: Adobe Illustrator 24.3.0, SVG Export Plug-In . SVG Version: 6.00 Build 0)  -->
<svg version="1.1" id="Capa_1" xmlns="http://www.w3.org/2000/svg" xmlns:xlink="http://www.w3.org/1999/xlink" x="0px" y="0px"
	 width="30.1px" height="29.4px" viewBox="0 0 30.1 29.4" style="enable-background:new 0 0 30.1 29.4;" xml:space="preserve">
<style type="text/css">
	.st0{fill:#B5B5B5;}
</style>
<path class="st0" d="M15.1,0C6.7,0,0,6.7,0,15.1c0,6.7,4.3,12.3,10.3,14.3c0.8,0.1,1-0.3,1-0.7v-2.8C7.1,26.7,6.2,24,6.2,24
	c-0.7-1.7-1.7-2.2-1.7-2.2c-1.4-0.9,0.1-0.9,0.1-0.9C6.2,21,7,22.5,7,22.5c1.3,2.3,3.5,1.6,4.4,1.3c0.1-1,0.5-1.6,1-2
	c-3.4-0.5-7-1.8-7-7.5c0-1.6,0.6-3,1.6-4c-0.2-0.4-0.7-1.9,0.1-4c0,0,1.3-0.4,4.1,1.5c1.2-0.3,2.5-0.5,3.8-0.5s2.6,0.2,3.8,0.5
	c2.9-2,4.2-1.6,4.2-1.6c0.8,2.1,0.3,3.6,0.1,4c1,1.1,1.5,2.4,1.5,4c0,5.8-3.5,7.1-6.9,7.4c0.5,0.5,1,1.4,1,2.8v4.1
	c0,0.4,0.2,0.9,1,0.7c6-2,10.3-7.6,10.3-14.3C30.1,6.7,23.4,0,15.1,0z"/>
</svg>
